<svg xmlns="http://www.w3.org/2000/svg" width="26" height="27">
    <path fill-rule="evenodd" d="M12.829.975C5.558.975.2 6.635.2 14.91c0 5.61 3.455 10.244 8.682 12.039.671.781.907-.301.907-.65 0-.334-.016-2.172-.016-3.301 0 0-3.669.806-4.44-1.602 0 0-.598-1.564-1.457-1.967 0 0-1.201-.844.083-.828 0 0 1.305.107 2.024 1.387a2.388 2.388 0 0 0 3.822 1.123c.12-.86.461-1.457.838-1.812-2.93-.333-5.886-.768-5.886-5.939 0-1.478.398-2.22 1.237-3.166-.137-.35-.582-1.79.136-3.65 1.096-.35 3.618 1.451 3.618 1.451 1.047-.301 2.174-.457 3.632-.457.775 0 1.902.156 2.951.457 0 0 2.521-1.806 3.617-1.451.718 1.865.272 3.3.892 3.65.082.951.597 1.693.597 3.166 0 5.187-3.089 5.601-6.019 5.939.483.425.892 1.232.892 2.495 0 1.811-.016 4.053-.016 4.494 0 .35.242 1.332.907.651 5.242-1.785 8.796-6.419 8.796-12.029C25.997 6.635 20.1.975 12.829.975z"/>
</svg>
