<svg xmlns="http://www.w3.org/2000/svg" width="27" height="26">
    <path fill-rule="evenodd" d="M13.25.5C5.869.5.24 5.837.24 12.991c0 7.155 5.629 12.997 13.01 12.997 6.932 0 13.02-5.842 13.02-12.997C26.27 5.837 20.182.5 13.25.5zM9.328 17.761a4.785 4.785 0 0 1-4.771-4.77c0-2.623 2.147-4.769 4.771-4.769s5.662 2.146 5.662 4.769-3.038 4.77-5.662 4.77zm8.482-.239c-2.041 0-3.114-2.027-3.114-4.531 0-2.504 1.073-4.531 3.114-4.531.583 0 1.657 2.027 1.657 4.531-.12 2.504-1.074 4.531-1.657 4.531zm2.969-.072c-.477 0-.835-2.193-.835-4.459 0-2.265.358-4.054.835-4.054s.835 1.789.835 4.054c0 2.266-.358 4.459-.835 4.459z"/>
</svg>
