<svg xmlns="http://www.w3.org/2000/svg" width="37" height="39">
    <path fill-rule="evenodd" d="M19.923 39.1h-2.447c-1.571-.105-2.949-.51-3.514-2.483l-1.139-2.902-3.717-2.109-3.131 1.164c-1.536-.48-3.018-1.202-3.789-2.515L1.2 28.242c-.961-1.311-.84-3.002.127-3.812l1.934-2.818v-4.221l-1.989-2.432C.302 13.758.181 12.66.968 10.746l1.157-1.998a3.768 3.768 0 0 1 3.778-1.829l3.617.473 3.304-2.113 1.138-2.899C14.527.937 15.906.2 17.474.2h2.387c1.571 0 2.948.737 3.513 2.181l1.14 2.901 3.716 2.109 3.132-.471c1.538-.206 3.019.511 3.789 1.823l1.166 2.012c1.663 1.915.66 3.003-.217 4.2l-1.34 2.43v4.221l1.88 2.784c.72.85.517 2.541-.27 3.862l-1.158 1.998c-.773 1.318-2.256 2.028-3.779 2.54l-3.144-1.184-3.717 2.109-1.139 2.902c-.564 1.973-1.942 2.378-3.51 2.483zM9.276 29.859c.151 0 .3.039.432.114l4.246 2.409a.866.866 0 0 1 .377.433l1.25 3.184a2.032 2.032 0 0 0 1.899 1.29h2.439c.833-.003 1.594-.521 1.895-1.189l1.836-3.285c-.513-.182-.38-.335-.209-.433l4.245-2.409c.171-.095.874-.133.564-.104l3.431.516a2.05 2.05 0 0 0 2.027-.988l1.161-2.004a2.007 2.007 0 0 0-.158-2.283l-2.178-2.664a.847.847 0 0 1-.193-.538V17.89c0-.993.066-1.179.186-1.329l2.123-2.668a2.005 2.005 0 0 0 .167-2.279l-1.169-2.017a2.034 2.034 0 0 0-2.037-.982l-3.418.514c-.193.03-.394-.007-.564.121l-4.246-2.635c-.172-.097.398-.25.218-.432l-1.845-3.185a2.026 2.026 0 0 0-1.897-1.289h-2.382a2.029 2.029 0 0 0-1.895 1.288l-1.25 3.186a.87.87 0 0 1-.381.435L9.646 9.27c-.17-.147-.365-.112.224-.141l-4.214-.516c-.813-.111-1.206.279-2.026.988l-1.161 2.004c-.089.722-.365 1.636.158 2.284l2.177 2.663c.124.152.193.342.193 1.338v4.018a.855.855 0 0 1-.185.529l-2.123 2.668c-.527.652.271 1.566-.167 2.279l1.168 2.017a2.04 2.04 0 0 0 2.038.981l3.417-.513a.95.95 0 0 1 .131-.01zm4.245-23.986h.009-.009zm5.148 21.047c-3.686 0-6.684-3.786-6.684-7.421 0-3.635 2.998-6.593 6.684-6.593 3.685 0 6.683 2.958 6.683 6.593s-2.998 7.421-6.683 7.421zm0-12.302c-2.729 0-4.949 2.19-4.949 4.881 0 2.692 2.22 4.881 4.949 4.881 2.728 0 4.948-2.189 4.948-4.881 0-2.691-2.22-4.881-4.948-4.881z"/>
</svg>
