<svg xmlns="http://www.w3.org/2000/svg" width="27" height="20">
    <path fill-rule="evenodd" d="M10.508 1.421C10.298.934 10.62.459 9.801.1 7.944.314 6.138.88 4.428 1.677 1.4 6.772.119 11.746.579 16.644a21.535 21.535 0 0 0 6.587 3.353 16.36 16.36 0 0 0 1.413-2.309c-.77-.29-.929-.288-2.222-1.07.185-.141.364-.283.537-.425 4.736 1.989 9.005 1.989 13.796 0-.444.147-.26.289-.078.427-.708.82-1.454.784-2.225 1.075.405.807.878 1.577 1.412 2.304a21.38 21.38 0 0 0 6.587-3.353c.537-5.678-.926-10.256-3.872-14.976C20.805.877 19.1.314 17.145.1c-.235.313-.501.871-.686 1.321a20.052 20.052 0 0 0-5.951 0zm-1.35 12.214c-1.286 0-2.34-1.187-2.34-2.644s1.031-2.653 2.34-2.653c1.307 0 2.352 1.187 2.34 2.646-.012 1.459-1.033 2.651-2.34 2.651zm8.646-5.297c1.307 0 2.352 1.187 2.338 2.646-.014 1.459-1.031 2.651-2.338 2.651-1.284 0-2.339-1.187-2.339-2.644s1.031-2.653 2.339-2.653z"/>
</svg>
