<svg xmlns="http://www.w3.org/2000/svg" width="26" height="26">
    <path fill-rule="evenodd" d="M12.997 0C5.817 0 .2 5.819.2 12.998c0 7.179 5.617 13 12.797 13 7.179 0 12.998-5.821 12.998-13S20.176 0 12.997 0zm6.529 10.534c.005.134.008.269.008.405 0 4.851-3.152 8.916-8.916 8.916a8.863 8.863 0 0 1-4.803-1.408c.785.029.494.044.747.044 1.738 0 2.821-.501 3.893-1.341-.635-.026-2.529-.932-2.928-2.177.191.927.388.317.589.317.286 0 .563-.3.826-.371a3.135 3.135 0 0 1-2.515-3.072c0-.014 0-.027.002-.04.422.613.905.376 1.419.392-.148-.562-1.394-1.521-1.394-2.609 0-.43.154-1.112.424-1.44 1.545 1.762 3.855 3.009 6.458 3.139-.052.311-.08-.468-.08-.714a3.134 3.134 0 0 1 5.421-2.144c.713-.14 1.943-.131 1.991-.76-.234.732-.731 1.489-1.378 1.734.633-.076 1.237-.244 2.6-.494-1.221.628-1.753 1.999-2.364 1.623z"/>
</svg>
