<svg xmlns="http://www.w3.org/2000/svg" width="35" height="26">
    <path fill-rule="evenodd" fill="#F3F6F9" d="M13.985 1.853C13.713 1.22 13.405.602 13.67.2c-3.017.213-5.366.948-6.85 1.985C1.678 8.808.481 15.274 1.78 21.642 3.664 23.579 6.56 25.54 9.642 26c.693-.47 1.307-1.51 1.835-3.001a18.17 18.17 0 0 1-2.887-1.391c.24-.183 1.04-.367.697-.048 5.422 2.081 11.707 2.081 17.128 0 .23-.313.468-.128.706.051-.92.551-1.89 1.019-2.893 2.289.527.67 1.142 1.68 2.412 2.4 2.507-.7 5.81-2.715 7.987-4.656.698-7.381-1.205-13.789-5.034-19.468C27.371 1.145 25.25.413 22.613.2c-.305.341-.651 1.066-.892 1.653a25.985 25.985 0 0 0-7.736 0zM12.23 17.73c-1.671 0-3.041-1.542-3.041-3.436 0-1.895 1.34-3.45 3.041-3.45 1.7 0 3.058 1.543 3.043 3.44-.016 1.897-1.343 3.446-3.043 3.446zm11.239-6.886c1.701 0 3.059 1.543 3.041 3.44-.019 1.897-1.34 3.446-3.041 3.446-1.668 0-3.04-1.542-3.04-3.436 0-1.895 1.34-3.45 3.04-3.45z"/>
</svg>
