<svg xmlns="http://www.w3.org/2000/svg" width="35" height="34">
    <path fill-rule="evenodd" fill="#F3F6F9" d="M17.603.72C8.151.72.921 7.43.921 17.123c0 7.75 4.757 14.382 11.55 16.716.873.161 1.18-.392 1.18-.846 0-.433-.021-2.823-.021-4.291 0 0-4.77 1.048-5.772-2.082 0 0-.048-2.034-1.894-2 0 0-1.56-1.655.756-1.634 0 0 1.049.14 1.984 1.803 1.492 2.697 3.993 1.922 4.967 1.46.157-1.118.6-1.893 1.09-2.355-3.808-.433-7.651-.999-7.651-7.721 0-1.922.517-2.887 1.607-3.603-.178-.968-.756-2.84.177-5.259 1.424-.453 4.703 1.887 4.703 1.887a15.638 15.638 0 0 1 4.278-.594c1.451 0 2.917.203 4.28.594 0 0 3.278-2.348 4.703-1.887.933 2.425.354 4.291.482 5.259.784.723 1.453 1.688 1.453 3.603 0 6.743-4.015 7.281-7.824 7.721.627.552 1.159 1.601 1.159 3.243 0 2.355-.02 5.269-.02 5.842 0 .455.314 1.006 1.179.846 6.814-2.32 11.435-8.952 11.435-16.702C34.722 7.43 27.55.72 17.603.72z"/>
</svg>
