<svg xmlns="http://www.w3.org/2000/svg" width="178" height="25">
    <path fill-rule="evenodd" fill="#F3F6F9" d="M172.186 24.64V.335h5.812V24.64h-5.812zm-11.026-3.65h-7.988l-1.394 3.65h-6.228L154.418.335h5.48l8.934 24.305h-6.261l-1.411-3.65zm-4.002-13.844-2.591 8.43h5.198l-2.607-8.43zM128.214 24.64h-5.912v-8.731L114.53.335h6.261l4.467 10.55 4.45-10.55h6.492l-7.986 15.574v8.731zm-21.622 0-4.068-8.23-4.068 8.23h-6.709l6.925-12.253L91.93.335h6.642l3.952 8.079 3.952-8.079h6.659l-6.758 12.052 6.941 12.253h-6.726zM82.88 20.99h-7.988l-1.395 3.65H67.27L76.137.335h5.481l8.934 24.305h-6.261l-1.411-3.65zM78.878 7.146l-2.591 8.43h5.198l-2.607-8.43zM49.203.335h6.107v19.798h9.868v4.507H49.203V.335zM38.575 20.99h-7.988l-1.395 3.65h-6.227L31.833.335h5.48l8.934 24.305h-6.261l-1.411-3.65zM34.573 7.146l-2.591 8.43h5.198l-2.607-8.43zm-23.93 17.828c-3.166 0-5.695-.974-7.103-2.454C1.161 20.105.148 17.395.16 13.923L0 11.82c0-2.393.42-4.482 1.261-6.268.841-1.786 2.045-3.161 3.612-4.123C6.439.466 8.252.14 10.311.14c3.012 0 5.35.537 7.017 2.49 1.665.818 2.637 2.886 2.914 5.634h-5.613c-.199-1.357-.631-2.325-1.295-2.904-.665-.579-1.605-.868-2.823-.868-1.021 0-2.591.623-3.388 1.869-.797 1.247-1.202 3.028-1.212 5.342v1.469c0 2.426.412 4.248 1.236 5.466.826 1.219 2.124 1.829 4.273 1.829 1.139 0 2.268-.34 3.01-1.019v-3.772h-4.052v-4.023h9.88v9.982c-.896 1.002-1.758 1.809-3.935 2.925-1.727.107-3.62.414-5.68.414z"/>
</svg>
