<svg xmlns="http://www.w3.org/2000/svg" width="36" height="37">
    <path fill-rule="evenodd" fill="#F3F6F9" d="M18.8.7C8.107.7.22 8.89.22 18.4c0 9.518 7.887 17.76 18.58 17.76 9.109 0 17.194-8.242 17.194-17.76C35.994 8.89 27.909.7 18.8.7zm-5.907 23.913c-3.631 0-6.601-2.974-6.601-6.213 0-4.032 2.97-7.006 6.601-7.006 3.63 0 6.6 2.974 6.6 7.006 0 3.239-2.97 6.213-6.6 6.213zm10.725-.33c-1.815 0-3.3-2.809-3.3-5.883 0-3.867 1.485-6.676 3.3-6.676 1.815 0 3.3 2.809 3.3 6.676-.164 3.074-1.485 5.883-3.3 5.883zm5.116-.661c.006 0-1.155-2.479-1.155-5.222 0-3.536 1.161-6.015 1.155-6.015.66 0 1.155 2.479 1.155 6.015 0 2.743-.495 5.222-1.155 5.222z"/>
</svg>
