<svg xmlns="http://www.w3.org/2000/svg" width="35" height="34">
    <path fill-rule="evenodd" fill="#F3F6F9" d="M17.621.103C8.288.103.722 7.669.722 17.2c0 9.135 7.566 16.702 16.899 16.702 9.332 0 16.898-7.567 16.898-16.702 0-9.531-7.566-17.097-16.898-17.097zm8.487 13.695c.008.175.012.35.012.527 0 5.383-3.9 11.591-11.591 11.591-2.302 0-3.659-.675-6.245-1.056.319-.736.642-.717.972-.717a8.178 8.178 0 0 0 5.06-1.744c-1.784-.033-3.026-1.211-3.805-2.829.248.047.629.073.765.073.372 0 1.424-.051 1.074-.143-1.865-.374-2.54-2.021-2.54-3.994 0-.018 0-.036.01-.052-.188.305.439.488 1.107.509a4.071 4.071 0 0 1-1.811-3.391c0-.746.2-1.445.55-2.047 2.009 2.464 5.012 4.086 8.964 4.256-.635-.298-.672-.609-.672-.929 0-2.249 1.824-4.073 4.362-4.073.883 0 1.943.495 3.18 1.881.433-.777 1.305-1.117 2.093-.89-.304.51-.951 1.056-1.791 1.561.824-.099 1.609-.191 2.339-.642a8.286 8.286 0 0 1-2.033 2.109z"/>
</svg>
